<?xml version="1.0" encoding="utf-8"?>
<!-- Generator: Adobe Illustrator 24.0.0, SVG Export Plug-In . SVG Version: 6.00 Build 0)  -->
<svg version="1.2" baseProfile="tiny" id="Layer_1" xmlns="http://www.w3.org/2000/svg" xmlns:xlink="http://www.w3.org/1999/xlink"
	 x="0px" y="0px" viewBox="0 0 534.35 534.35" xml:space="preserve">
<path d="M364.05,267.18L498.23,133c26.75-26.75,26.75-70.12,0-96.87l0,0c-26.75-26.75-70.12-26.75-96.87,0L267.18,170.3L133,36.12
	c-26.75-26.75-70.12-26.75-96.87,0l0,0c-26.75,26.75-26.75,70.12,0,96.87L170.3,267.18L36.12,401.36
	c-26.75,26.75-26.75,70.12,0,96.87l0,0c26.75,26.75,70.12,26.75,96.87,0l134.18-134.18l134.18,134.18
	c26.75,26.75,70.12,26.75,96.87,0l0,0c26.75-26.75,26.75-70.12,0-96.87L364.05,267.18z"/>
</svg>
